<?xml version="1.0" encoding="utf-8"?>
<!-- Generator: Adobe Illustrator 21.1.0, SVG Export Plug-In . SVG Version: 6.00 Build 0)  -->
<svg version="1.1" id="Layer_1" xmlns="http://www.w3.org/2000/svg" xmlns:xlink="http://www.w3.org/1999/xlink" x="0px" y="0px"
	 viewBox="0 0 350 77" style="enable-background:new 0 0 350 77;" xml:space="preserve">
<style type="text/css">
	.st0{fill:#F68A39;}
	.st1{fill:#FAAA6F;}
	.st2{fill:#FCC092;}
	.st3{fill:#FEE4CE;}
	.st4{fill-rule:evenodd;clip-rule:evenodd;fill:#231F20;}
	.st5{fill:#231F20;}
	.st6{fill:none;stroke:#F68A39;stroke-width:1.4775;stroke-miterlimit:3.8637;}
	.st7{fill-rule:evenodd;clip-rule:evenodd;fill:#F68A39;}
</style>
<g>
	<path class="st0" d="M24.3,38.4c0-3.1,2.5-5.5,5.5-5.5c3.1,0,5.5,2.5,5.5,5.5c0,3.1-2.5,5.5-5.5,5.5C26.8,43.9,24.3,41.4,24.3,38.4
		L24.3,38.4z"/>
	<path class="st1" d="M24.3,26.4c0-2.4,2.5-4.3,5.5-4.3c3.1,0,5.5,1.9,5.5,4.3c0,2.4-2.5,4.3-5.5,4.3C26.8,30.7,24.3,28.8,24.3,26.4
		L24.3,26.4z"/>
	<path class="st1" d="M16.7,37.2c-2.1-1.2-2.5-4.3-1-7c1.5-2.7,4.5-3.8,6.5-2.6c2.1,1.2,2.5,4.3,1,7C21.7,37.2,18.8,38.4,16.7,37.2
		L16.7,37.2z"/>
	<path class="st1" d="M22.2,49.2c-2.1,1.2-5,0-6.5-2.6c-1.5-2.6-1.1-5.8,1-7c2.1-1.2,5,0,6.5,2.6C24.7,44.9,24.3,48,22.2,49.2
		L22.2,49.2z"/>
	<path class="st1" d="M35.3,50.5c0,2.4-2.5,4.3-5.5,4.3c-3.1,0-5.5-1.9-5.5-4.3c0-2.4,2.5-4.3,5.5-4.3
		C32.8,46.1,35.3,48.1,35.3,50.5L35.3,50.5z"/>
	<path class="st1" d="M43,39.7c2.1,1.2,2.5,4.3,1,7c-1.5,2.7-4.5,3.8-6.5,2.6c-2.1-1.2-2.5-4.3-1-7C38,39.7,40.9,38.5,43,39.7
		L43,39.7z"/>
	<path class="st1" d="M37.5,27.7c2.1-1.2,5,0,6.5,2.6c1.5,2.7,1.1,5.8-1,7c-2.1,1.2-5,0-6.5-2.6C35,32,35.4,28.9,37.5,27.7
		L37.5,27.7z"/>
	<path class="st2" d="M24.3,16.7c0-1.8,2.5-3.2,5.5-3.2c3.1,0,5.5,1.4,5.5,3.2S32.9,20,29.8,20C26.8,20,24.3,18.5,24.3,16.7
		L24.3,16.7z"/>
	<path class="st2" d="M8.4,32.4c-1.5-0.9-1.6-3.8,0-6.4c1.5-2.7,4-4.1,5.6-3.2c1.5,0.9,1.6,3.8,0,6.4C12.4,31.8,9.9,33.2,8.4,32.4
		L8.4,32.4z"/>
	<path class="st2" d="M13.9,54c-1.5,0.9-4-0.5-5.6-3.2c-1.5-2.7-1.5-5.5,0-6.4c1.5-0.9,4,0.5,5.6,3.2C15.4,50.2,15.4,53.1,13.9,54
		L13.9,54z"/>
	<path class="st2" d="M35.3,60.1c0,1.8-2.5,3.2-5.5,3.2c-3.1,0-5.5-1.4-5.5-3.2c0-1.8,2.5-3.2,5.5-3.2
		C32.8,56.8,35.3,58.3,35.3,60.1L35.3,60.1z"/>
	<path class="st2" d="M51.3,44.5c1.5,0.9,1.6,3.8,0,6.4c-1.5,2.7-4,4.1-5.6,3.2c-1.5-0.9-1.6-3.8,0-6.4C47.3,45,49.8,43.6,51.3,44.5
		L51.3,44.5z"/>
	<path class="st2" d="M45.8,22.9c1.5-0.9,4,0.5,5.6,3.2c1.5,2.7,1.5,5.5,0,6.4c-1.5,0.9-4-0.5-5.6-3.2
		C44.2,26.7,44.2,23.8,45.8,22.9L45.8,22.9z"/>
	<path class="st3" d="M24.3,9.9c0-0.9,2.5-1.7,5.5-1.7c3.1,0,5.5,0.7,5.5,1.7c0,0.9-2.5,1.7-5.5,1.7C26.8,11.6,24.3,10.8,24.3,9.9
		L24.3,9.9z"/>
	<path class="st3" d="M2.4,28.9c-0.8-0.5-0.2-3,1.3-5.6c1.5-2.7,3.4-4.4,4.2-4c0.8,0.5,0.2,3-1.3,5.6C5.1,27.6,3.2,29.4,2.4,28.9
		L2.4,28.9z"/>
	<path class="st3" d="M8,57.4c-0.8,0.5-2.7-1.3-4.2-4c-1.5-2.7-2.1-5.2-1.3-5.6c0.8-0.5,2.7,1.3,4.2,4C8.1,54.4,8.7,57,8,57.4
		L8,57.4z"/>
	<path class="st3" d="M35.3,66.9c0,0.9-2.5,1.7-5.5,1.7c-3.1,0-5.5-0.7-5.5-1.7c0-0.9,2.5-1.7,5.5-1.7C32.8,65.2,35.3,66,35.3,66.9
		L35.3,66.9z"/>
	<path class="st3" d="M57.2,47.9c0.8,0.5,0.2,3-1.3,5.6c-1.5,2.7-3.4,4.4-4.2,4c-0.8-0.5-0.2-3,1.3-5.6
		C54.5,49.3,56.4,47.5,57.2,47.9L57.2,47.9z"/>
	<path class="st3" d="M51.7,19.5c0.8-0.5,2.7,1.3,4.2,4c1.5,2.7,2.1,5.2,1.3,5.6c-0.8,0.5-2.7-1.3-4.2-4
		C51.5,22.5,50.9,19.9,51.7,19.5L51.7,19.5z"/>
	<path class="st4" d="M78.2,42.6c7.6,0,9.4-7,9.4-13.7c0-6.7-1.8-13.6-9.4-13.6c-7.6,0-9.5,6.9-9.5,13.6
		C68.7,35.6,70.6,42.6,78.2,42.6L78.2,42.6z M72,28.9c0-4.8,0.8-11.1,6.2-11.1c5.3,0,6.1,6.3,6.1,11.1c0,4.8-0.8,11.3-6.1,11.3
		C72.9,40.1,72,33.6,72,28.9L72,28.9z"/>
	<path class="st4" d="M92.2,50.4h2.6V39.2h0.1c0.4,1.3,1.6,3.4,4.8,3.4c4.5,0,6.2-4.8,6.2-9.7c0-5.8-1.8-9.4-6.3-9.4
		c-2.9,0-4.4,2.2-4.8,3.5h-0.1v-3.1h-2.6V50.4L92.2,50.4z M94.8,33c0-3.2,1.3-7.3,4.3-7.3c3.4,0,3.8,4.4,3.8,6.7c0,3.9-0.8,8-3.9,8
		C96.3,40.4,94.8,37.1,94.8,33L94.8,33z"/>
	<path class="st5" d="M119,40.1c-0.6,0.2-0.9,0.3-1.8,0.3c-2.7,0-3-1.9-3-3.1V26.1h4.9v-2.2h-4.9V18l-2.6,1.7v4.3h-3v2.2h3v11.8
		c0,3.3,1.4,4.7,5.1,4.7c0.8,0,1.5-0.1,2.3-0.2V40.1L119,40.1z"/>
	<path class="st4" d="M122.9,42.2h2.6V23.9h-2.6V42.2L122.9,42.2z M122.5,19.1h3.5v-3.5h-3.5V19.1L122.5,19.1z"/>
	<path class="st5" d="M131.5,42.2h2.6v-7.5c0-3.3,1.5-8.6,4.6-8.6c2.7,0,2.7,2.8,2.7,6v10.1h2.6v-7.5c0-3.3,1.5-8.6,4.6-8.6
		c2.7,0,2.7,2.8,2.7,6v10.1h2.6V29.1c0-3-1.6-5.6-4.7-5.6c-3.3,0-4.7,2.8-5.2,4.2h-0.1c-0.2-2.4-1.5-4.2-4.6-4.2
		c-3.6,0-4.7,3.2-5.1,4.6h-0.1v-4.2h-2.6V42.2L131.5,42.2z"/>
	<path class="st5" d="M169.9,42.2h2.6V23.9h-2.6v7.5c0,3.3-1.7,8.6-5.1,8.6c-2.7,0-2.7-2.8-2.7-6V23.9h-2.6V37c0,3,1.5,5.6,4.7,5.6
		c4.1,0,5.2-3.2,5.7-4.6h0.1V42.2L169.9,42.2z"/>
	<path class="st5" d="M178.4,42.2h2.6v-7.5c0-3.3,1.5-8.6,4.6-8.6c2.7,0,2.7,2.8,2.7,6v10.1h2.6v-7.5c0-3.3,1.5-8.6,4.6-8.6
		c2.7,0,2.7,2.8,2.7,6v10.1h2.6V29.1c0-3-1.6-5.6-4.7-5.6c-3.3,0-4.7,2.8-5.2,4.2h-0.1c-0.2-2.4-1.5-4.2-4.6-4.2
		c-3.6,0-4.7,3.2-5.1,4.6H181v-4.2h-2.6V42.2L178.4,42.2z"/>
	<path class="st5" d="M222.2,26.5c-2.1-1.2-4.4-2.4-4.4-4.7c0-2.5,2-4,5-4c2.8,0,5.1,0.9,5.8,1.2v-3c-0.9-0.2-3-0.7-5.5-0.7
		c-4.9,0-8.5,2.2-8.5,6.8c0,4,3.3,5.5,5.7,6.9l2.3,1.3c2.2,1.2,4.4,2.3,4.4,5.3c0,2.9-2.5,4.5-5.7,4.5c-3.2,0-5.9-1.2-6.5-1.4v3.1
		c0.7,0.2,3.3,0.8,6.1,0.8c5,0,9.3-1.9,9.3-7.5c0-4.2-2.9-5.8-5.6-7.3L222.2,26.5L222.2,26.5z"/>
	<path class="st4" d="M240.3,42.6c5.4,0,7.5-4.2,7.5-9.5c0-5.3-2.1-9.6-7.5-9.6c-5.4,0-7.5,4.3-7.5,9.6
		C232.9,38.4,234.9,42.6,240.3,42.6L240.3,42.6z M235.9,33.1c0-4.6,1.5-7.4,4.5-7.4c3,0,4.5,2.8,4.5,7.4c0,4.6-1.5,7.4-4.5,7.4
		C237.4,40.4,235.9,37.7,235.9,33.1L235.9,33.1z"/>
	<polygon class="st5" points="252.5,42.2 255.1,42.2 255.1,15.7 252.5,15.7 252.5,42.2 	"/>
	<path class="st5" d="M271.4,42.2h2.6V23.9h-2.6v7.5c0,3.3-1.7,8.6-5.1,8.6c-2.7,0-2.7-2.8-2.7-6V23.9H261V37c0,3,1.5,5.6,4.7,5.6
		c4.1,0,5.2-3.2,5.7-4.6h0.1V42.2L271.4,42.2z"/>
	<path class="st5" d="M288.6,40.1c-0.6,0.2-0.9,0.3-1.8,0.3c-2.7,0-3-1.9-3-3.1V26.1h4.9v-2.2h-4.9V18l-2.6,1.7v4.3h-3v2.2h3v11.8
		c0,3.3,1.4,4.7,5.1,4.7c0.8,0,1.5-0.1,2.3-0.2V40.1L288.6,40.1z"/>
	<path class="st4" d="M292.6,42.2h2.6V23.9h-2.6V42.2L292.6,42.2z M292.1,19.1h3.5v-3.5h-3.5V19.1L292.1,19.1z"/>
	<path class="st4" d="M307.3,42.6c5.4,0,7.5-4.2,7.5-9.5c0-5.3-2.1-9.6-7.5-9.6c-5.4,0-7.5,4.3-7.5,9.6
		C299.9,38.4,302,42.6,307.3,42.6L307.3,42.6z M302.9,33.1c0-4.6,1.5-7.4,4.5-7.4c3,0,4.5,2.8,4.5,7.4c0,4.6-1.5,7.4-4.5,7.4
		C304.4,40.4,302.9,37.7,302.9,33.1L302.9,33.1z"/>
	<path class="st5" d="M319.3,42.2h2.6v-7.5c0-3.3,1.7-8.6,5.2-8.6c2.7,0,2.7,2.8,2.7,6v10.1h2.6V29.1c0-3-1.6-5.6-4.7-5.6
		c-4.1,0-5.2,3.2-5.7,4.6h-0.1v-4.2h-2.6V42.2L319.3,42.2z"/>
	<path class="st5" d="M342.4,30.9c-1.5-0.8-3.3-1.4-3.3-2.9c0-1.3,1.5-2.4,3.7-2.4c1.8,0,3.6,0.6,4.3,0.8v-2.4
		c-0.8-0.2-2.3-0.6-4.3-0.6c-4.1,0-6.3,1.9-6.3,4.8c0,3,2.5,4,4.1,5l1.7,0.9c1.1,0.6,3.3,1.4,3.3,3.3c0,2.1-1.9,3-4.5,3
		c-2.1,0-4.3-0.8-4.7-1v2.4c0.7,0.2,2.6,0.8,5,0.8c4.3,0,6.8-1.9,6.8-5.5c0-3.2-2.3-4.2-4.3-5.2L342.4,30.9L342.4,30.9z"/>
	<line class="st6" x1="97.8" y1="48" x2="347.1" y2="48"/>
	<path class="st7" d="M103.9,62.4c-0.3,0.1-0.8,0.3-1.5,0.3c-2.1,0-2.8-2-2.8-3.5h4.5v-0.4c0-1.8-0.9-3.1-2.8-3.1
		c-1,0-3.2,0.4-3.2,3.7c0,3,1.5,4.4,3.8,4.4c0.8,0,1.3-0.1,1.9-0.3V62.4L103.9,62.4z M99.6,58.2c0-0.3,0.3-1.4,1.5-1.4
		c1.1,0,1.4,0.9,1.4,1.4H99.6L99.6,58.2z"/>
	<path class="st5" d="M105.7,63.6h1.5v-3.3c0-1.5,0.7-3.2,1.8-3.2c1,0,1,0.8,1,2.2v4.2h1.5v-3.7c0-1.3,0.8-2.7,1.7-2.7
		c1.1,0,1.1,0.8,1.1,2.2v4.2h1.5v-5.4c0-1-0.3-2.6-2.1-2.6c-1.3,0-1.9,1-2.2,1.6h0c-0.1-0.7-0.6-1.6-2-1.6c-1.4,0-1.9,1.1-2.2,1.7h0
		v-1.5h-1.5V63.6L105.7,63.6z"/>
	<path class="st4" d="M117.9,67.1h1.5v-4.5h0c0.2,0.4,0.8,1.2,2.1,1.2c1.8,0,2.7-1.6,2.7-4.2c0-2.2-0.8-3.9-2.6-3.9
		c-1.3,0-2,0.9-2.1,1.3h0v-1.2h-1.5V67.1L117.9,67.1z M119.3,59.8c0-1.3,0.5-2.9,1.7-2.9c1.4,0,1.5,1.7,1.5,2.9
		c0,1.6-0.4,2.9-1.5,2.9C119.7,62.7,119.3,61.1,119.3,59.8L119.3,59.8z"/>
	<path class="st4" d="M128.7,63.8c2.3,0,3.4-1.6,3.4-4c0-2.5-1.1-4-3.4-4c-2.3,0-3.4,1.6-3.4,4C125.3,62.2,126.4,63.8,128.7,63.8
		L128.7,63.8z M126.9,59.8c0-1.3,0.2-2.9,1.8-2.9c1.6,0,1.8,1.7,1.8,2.9c0,1.2-0.2,2.9-1.8,2.9C127.1,62.7,126.9,61,126.9,59.8
		L126.9,59.8z"/>
	<polygon class="st5" points="135,63.6 136.6,63.6 138.1,58.3 138.2,58.3 139.8,63.6 141.3,63.6 143.1,55.9 141.7,55.9 140.4,61.5 
		140.4,61.5 138.7,55.9 137.6,55.9 135.9,61.5 135.9,61.5 134.7,55.9 133.3,55.9 135,63.6 	"/>
	<path class="st4" d="M150,62.4c-0.3,0.1-0.8,0.3-1.5,0.3c-2.1,0-2.8-2-2.8-3.5h4.5v-0.4c0-1.8-0.9-3.1-2.8-3.1
		c-1,0-3.2,0.4-3.2,3.7c0,3,1.5,4.4,3.8,4.4c0.8,0,1.3-0.1,1.9-0.3V62.4L150,62.4z M145.7,58.2c0-0.3,0.3-1.4,1.5-1.4
		c1.1,0,1.4,0.9,1.4,1.4H145.7L145.7,58.2z"/>
	<path class="st5" d="M151.8,63.6h1.5v-3.3c0-2.4,1.1-3,2.4-3v-1.6c-1.5,0-2.2,1.1-2.4,1.7h0v-1.6h-1.5V63.6L151.8,63.6z"/>
	<path class="st4" d="M157.2,63.6h1.5v-7.7h-1.5V63.6L157.2,63.6z M157.1,54.1h1.8v-1.7h-1.8V54.1L157.1,54.1z"/>
	<path class="st5" d="M161.1,63.6h1.5v-3.3c0-1.5,0.8-3.2,2-3.2c1.1,0,1.1,0.8,1.1,2.2v4.2h1.5v-5.4c0-1-0.3-2.6-2.1-2.6
		c-1.6,0-2.2,1.2-2.5,1.8h0v-1.7h-1.5V63.6L161.1,63.6z"/>
	<path class="st4" d="M175.1,55.9h-1.5V57h0c-0.2-0.4-0.8-1.3-2-1.3c-2,0-2.8,1.9-2.8,4c0,2,0.6,3.9,2.7,3.9c1.3,0,2-0.9,2.1-1.3h0
		v1.2c0,0.9,0,2.5-2.3,2.5c-0.9,0-1.8-0.4-2.2-0.6v1.5c0.3,0.1,1.2,0.3,2.4,0.3c2.3,0,3.6-0.9,3.6-3.2V55.9L175.1,55.9z M170.4,59.7
		c0-1.2,0.2-2.9,1.5-2.9c1.3,0,1.7,1.6,1.7,2.7c0,1.2-0.5,2.9-1.7,2.9C170.6,62.5,170.4,60.7,170.4,59.7L170.4,59.7z"/>
	<path class="st4" d="M183.3,52.4h-1.5v8c0,1,0.1,3.4,3,3.4c2.2,0,3.1-1.6,3.1-4c0-2-0.5-4.1-2.6-4.1c-1.2,0-1.8,0.8-2,1.2h0V52.4
		L183.3,52.4z M183.3,59.7c0-1.1,0.4-2.9,1.6-2.9c1.2,0,1.4,1.8,1.4,2.9c0,1.4-0.3,2.9-1.6,2.9C183.3,62.7,183.3,60.9,183.3,59.7
		L183.3,59.7z"/>
	<path class="st5" d="M194.1,63.6h1.5v-7.7h-1.5v3.3c0,1.5-0.8,3.2-2,3.2c-1.1,0-1.1-0.8-1.1-2.2v-4.2h-1.5v5.4c0,1,0.3,2.6,2.1,2.6
		c1.6,0,2.2-1.2,2.5-1.8h0V63.6L194.1,63.6z"/>
	<path class="st4" d="M199.9,58.8c-0.5-0.3-1.1-0.6-1.1-1.1c0-0.5,0.6-0.8,1.3-0.8c0.8,0,1.6,0.4,1.8,0.5V56c-0.4-0.1-1-0.3-1.8-0.3
		c-1.6,0-2.7,0.8-2.7,2.2c0,1.1,0.8,1.7,1.5,2.1l0.7,0.5c0.5,0.3,1.2,0.7,1.2,1.3c0,0.8-0.9,1-1.6,1c-0.8,0-1.8-0.4-2-0.5v1.3
		c0.3,0.1,1,0.3,2.1,0.3c1.7,0,2.9-0.7,2.9-2.3c0-1.3-1-1.8-1.8-2.3L199.9,58.8L199.9,58.8z"/>
	<path class="st4" d="M203.9,63.6h1.5v-7.7h-1.5V63.6L203.9,63.6z M203.7,54.1h1.8v-1.7h-1.8V54.1L203.7,54.1z"/>
	<path class="st5" d="M207.8,63.6h1.5v-3.3c0-1.5,0.8-3.2,2-3.2c1.1,0,1.1,0.8,1.1,2.2v4.2h1.5v-5.4c0-1-0.3-2.6-2.1-2.6
		c-1.6,0-2.2,1.2-2.5,1.8h0v-1.7h-1.5V63.6L207.8,63.6z"/>
	<path class="st4" d="M221.3,62.4c-0.3,0.1-0.8,0.3-1.5,0.3c-2.1,0-2.8-2-2.8-3.5h4.5v-0.4c0-1.8-0.9-3.1-2.8-3.1
		c-1,0-3.2,0.4-3.2,3.7c0,3,1.5,4.4,3.8,4.4c0.8,0,1.3-0.1,1.9-0.3V62.4L221.3,62.4z M217,58.2c0-0.3,0.3-1.4,1.5-1.4
		c1.1,0,1.4,0.9,1.4,1.4H217L217,58.2z"/>
	<path class="st4" d="M225.1,58.8c-0.5-0.3-1.1-0.6-1.1-1.1c0-0.5,0.6-0.8,1.3-0.8c0.8,0,1.6,0.4,1.8,0.5V56c-0.4-0.1-1-0.3-1.8-0.3
		c-1.6,0-2.7,0.8-2.7,2.2c0,1.1,0.8,1.7,1.5,2.1l0.7,0.5c0.5,0.3,1.2,0.7,1.2,1.3c0,0.8-0.9,1-1.6,1c-0.8,0-1.8-0.4-2-0.5v1.3
		c0.3,0.1,1,0.3,2.1,0.3c1.7,0,2.9-0.7,2.9-2.3c0-1.3-1-1.8-1.8-2.3L225.1,58.8L225.1,58.8z"/>
	<path class="st4" d="M230.9,58.8c-0.5-0.3-1.1-0.6-1.1-1.1c0-0.5,0.6-0.8,1.3-0.8c0.8,0,1.6,0.4,1.8,0.5V56c-0.4-0.1-1-0.3-1.8-0.3
		c-1.6,0-2.7,0.8-2.7,2.2c0,1.1,0.8,1.7,1.5,2.1l0.7,0.5c0.5,0.3,1.2,0.7,1.2,1.3c0,0.8-0.9,1-1.6,1c-0.8,0-1.8-0.4-2-0.5v1.3
		c0.3,0.1,1,0.3,2.1,0.3c1.7,0,2.9-0.7,2.9-2.3c0-1.3-1-1.8-1.8-2.3L230.9,58.8L230.9,58.8z"/>
	<polygon class="st5" points="240.7,63.6 242.2,63.6 243.8,58.3 243.8,58.3 245.4,63.6 247,63.6 248.7,55.9 247.3,55.9 246.1,61.5 
		246,61.5 244.3,55.9 243.2,55.9 241.5,61.5 241.5,61.5 240.3,55.9 238.9,55.9 240.7,63.6 	"/>
	<path class="st4" d="M250.5,63.6h1.5v-7.7h-1.5V63.6L250.5,63.6z M250.4,54.1h1.8v-1.7h-1.8V54.1L250.4,54.1z"/>
	<path class="st5" d="M258.5,62.6c-0.2,0.1-0.5,0.1-0.8,0.1c-1.1,0-1.2-0.8-1.2-1.5V57h2.1v-1.1h-2.1v-2.7l-1.5,0.9v1.8h-1.4V57h1.4
		v4.9c0,1.1,0.5,1.9,2.3,1.9c0.4,0,0.8,0,1.2-0.1V62.6L258.5,62.6z"/>
	<path class="st5" d="M260,63.6h1.5v-3.3c0-1.5,0.8-3.2,2-3.2c1.1,0,1.1,0.8,1.1,2.2v4.2h1.5v-5.4c0-1-0.3-2.6-2.1-2.6
		c-1.6,0-2.2,1.2-2.5,1.8h0v-5.1H260V63.6L260,63.6z"/>
	<path class="st5" d="M277,62.6c-0.2,0.1-0.5,0.1-0.8,0.1c-1.1,0-1.2-0.8-1.2-1.5V57h2.1v-1.1H275v-2.7l-1.5,0.9v1.8h-1.4V57h1.4
		v4.9c0,1.1,0.5,1.9,2.3,1.9c0.4,0,0.8,0,1.2-0.1V62.6L277,62.6z"/>
	<path class="st4" d="M283.7,62.4c-0.3,0.1-0.8,0.3-1.5,0.3c-2.1,0-2.8-2-2.8-3.5h4.5v-0.4c0-1.8-0.9-3.1-2.8-3.1
		c-1,0-3.2,0.4-3.2,3.7c0,3,1.5,4.4,3.8,4.4c0.8,0,1.3-0.1,1.9-0.3V62.4L283.7,62.4z M279.4,58.2c0-0.3,0.3-1.4,1.5-1.4
		c1.1,0,1.4,0.9,1.4,1.4H279.4L279.4,58.2z"/>
	<path class="st5" d="M290.9,62.5c-0.4,0.1-0.8,0.2-1.2,0.2c-2.4,0-3.1-1.9-3.1-3.5c0-1.4,0.6-2.4,1.6-2.4c1.1,0,1.2,1,1.2,1.6h1.7
		c0-1.3-0.6-2.7-2.8-2.7c-2.3,0-3.3,1.6-3.3,3.8c0,1.9,0.8,4.3,3.8,4.3c0.9,0,1.6-0.1,2.1-0.3V62.5L290.9,62.5z"/>
	<path class="st5" d="M292.3,63.6h1.5v-3.3c0-1.5,0.8-3.2,2-3.2c1.1,0,1.1,0.8,1.1,2.2v4.2h1.5v-5.4c0-1-0.3-2.6-2.1-2.6
		c-1.6,0-2.2,1.2-2.5,1.8h0v-5.1h-1.5V63.6L292.3,63.6z"/>
	<path class="st5" d="M300.5,63.6h1.5v-3.3c0-1.5,0.8-3.2,2-3.2c1.1,0,1.1,0.8,1.1,2.2v4.2h1.5v-5.4c0-1-0.3-2.6-2.1-2.6
		c-1.6,0-2.2,1.2-2.5,1.8h0v-1.7h-1.5V63.6L300.5,63.6z"/>
	<path class="st4" d="M311.7,63.8c2.3,0,3.4-1.6,3.4-4c0-2.5-1.1-4-3.4-4c-2.3,0-3.4,1.6-3.4,4C308.2,62.2,309.3,63.8,311.7,63.8
		L311.7,63.8z M309.9,59.8c0-1.3,0.2-2.9,1.8-2.9c1.6,0,1.8,1.7,1.8,2.9c0,1.2-0.2,2.9-1.8,2.9C310.1,62.7,309.9,61,309.9,59.8
		L309.9,59.8z"/>
	<polygon class="st5" points="316.9,63.6 318.4,63.6 318.4,52.4 316.9,52.4 316.9,63.6 	"/>
	<path class="st4" d="M323.7,63.8c2.3,0,3.4-1.6,3.4-4c0-2.5-1.1-4-3.4-4c-2.3,0-3.4,1.6-3.4,4C320.2,62.2,321.3,63.8,323.7,63.8
		L323.7,63.8z M321.9,59.8c0-1.3,0.2-2.9,1.8-2.9c1.6,0,1.8,1.7,1.8,2.9c0,1.2-0.2,2.9-1.8,2.9C322.1,62.7,321.9,61,321.9,59.8
		L321.9,59.8z"/>
	<path class="st4" d="M334.5,55.9H333V57h0c-0.2-0.4-0.8-1.3-2-1.3c-2,0-2.8,1.9-2.8,4c0,2,0.6,3.9,2.7,3.9c1.3,0,2-0.9,2.1-1.3h0
		v1.2c0,0.9,0,2.5-2.3,2.5c-0.9,0-1.8-0.4-2.2-0.6v1.5c0.3,0.1,1.2,0.3,2.4,0.3c2.3,0,3.6-0.9,3.6-3.2V55.9L334.5,55.9z M329.8,59.7
		c0-1.2,0.2-2.9,1.5-2.9c1.3,0,1.7,1.6,1.7,2.7c0,1.2-0.5,2.9-1.7,2.9C330,62.5,329.8,60.7,329.8,59.7L329.8,59.7z"/>
	<polygon class="st5" points="337.4,67 338.9,67 342.7,55.9 341.1,55.9 339.3,61.5 339.2,61.5 337.2,55.9 335.6,55.9 338.5,63.7 
		337.4,67 	"/>
</g>
</svg>
